<svg width="24" height="24" viewBox="0 0 24 24" fill="none" xmlns="http://www.w3.org/2000/svg">
<g clip-path="url(#clip0)">
<path d="M21.75 3.00002H2.25001C1.0093 3.00002 0 4.00926 0 5.24998V18.75C0 19.9907 1.0093 21 2.25001 21H21.75C22.9908 21 24 19.9907 24 18.75V5.24998C24 4.00926 22.9908 3.00002 21.75 3.00002ZM22.5 18.75C22.5 19.1638 22.1638 19.5 21.75 19.5H2.25001C1.83621 19.5 1.50001 19.1638 1.50001 18.75V10H12H22.5V18.75ZM22.5 7.49999H12H1.50001V5.24998C1.50001 4.83617 1.83621 4.49997 2.25001 4.49997H21.75C22.1638 4.49997 22.5 4.83617 22.5 5.24998L22.5 7.49999Z" fill="#ACACAC"/>
</g>
<defs>
<clipPath id="clip0">
<rect width="24" height="24" fill="white"/>
</clipPath>
</defs>
</svg>
