<svg width="24" height="24" viewBox="0 0 24 24" fill="none" xmlns="http://www.w3.org/2000/svg">
<g clip-path="url(#clip0)">
<path d="M3.27718 7.75781L11.6938 8.25L20.5897 7.75781V21L3.27718 20.25V7.75781ZM21.6938 14.25C21.6938 15.4927 22.5893 16.5 23.6938 16.5V21C23.6938 22.2427 22.7984 23.25 21.6938 23.25H1.69385C0.589264 23.25 -0.306152 22.2427 -0.306152 21V16.5C0.798431 16.5 1.69385 15.4927 1.69385 14.25C1.69385 13.0073 0.798431 12 -0.306152 12V7.5C-0.306152 6.25734 0.589264 5.25 1.69385 5.25H21.6938C22.7984 5.25 23.6938 6.25734 23.6938 7.5V12C22.5893 12 21.6938 13.0073 21.6938 14.25ZM19.6938 9.375C19.6938 8.75367 19.2461 8.25 18.6938 8.25L11.6938 9.375L4.69385 8.25C4.14156 8.25 3.69385 8.75367 3.69385 9.375V19.125C3.69385 19.7463 4.14156 20.25 4.69385 20.25H18.6938C19.2461 20.25 19.6938 19.7463 19.6938 19.125V9.375Z" fill="#ACACAC"/>
<path d="M9.48562 17.9062L11.6875 17.0462L13.8894 17.9062L13.8167 15.3661L15.25 13.3577L13.0035 12.6481L11.6875 10.5469L10.3715 12.6481L8.125 13.358L9.5583 15.3661L9.48562 17.9062Z" fill="white"/>
</g>
<defs>
<clipPath id="clip0">
<rect width="24" height="24" fill="white"/>
</clipPath>
</defs>
</svg>
